<svg width="20" height="20" viewBox="0 0 20 20" fill="none" xmlns="http://www.w3.org/2000/svg">
<path d="M16.6667 9.99998C16.6667 9.59088 16.335 9.25924 15.9259 9.25924H10.7408V4.07406C10.7408 3.66496 10.4091 3.33331 10 3.33331V3.33331C9.59091 3.33331 9.25927 3.66495 9.25927 4.07405V9.25924H4.07409C3.66499 9.25924 3.33334 9.59088 3.33334 9.99998V9.99998C3.33334 10.4091 3.66498 10.7407 4.07408 10.7407H9.25927V15.9259C9.25927 16.335 9.59091 16.6666 10 16.6666V16.6666C10.4091 16.6666 10.7408 16.335 10.7408 15.9259V10.7407H15.9259C16.335 10.7407 16.6667 10.4091 16.6667 9.99998V9.99998Z" fill="#4E5058"/>
</svg>
